<?xml version="1.0" encoding="UTF-8" standalone="no"?>
<svg
   xmlns:dc="http://purl.org/dc/elements/1.1/"
   xmlns:cc="http://creativecommons.org/ns#"
   xmlns:rdf="http://www.w3.org/1999/02/22-rdf-syntax-ns#"
   xmlns:svg="http://www.w3.org/2000/svg"
   xmlns="http://www.w3.org/2000/svg"
   xmlns:sodipodi="http://sodipodi.sourceforge.net/DTD/sodipodi-0.dtd"
   xmlns:inkscape="http://www.inkscape.org/namespaces/inkscape"
   sodipodi:docname="BNKO.svg"
   inkscape:version="1.0 (4035a4fb49, 2020-05-01)"
   id="svg8"
   version="1.1"
   viewBox="0 0 210 297"
   height="297mm"
   width="210mm">
  <defs
     id="defs2" />
  <sodipodi:namedview
     inkscape:window-maximized="1"
     inkscape:window-y="137"
     inkscape:window-x="2552"
     inkscape:window-height="1017"
     inkscape:window-width="1920"
     showborder="true"
     showgrid="false"
     inkscape:document-rotation="0"
     inkscape:current-layer="layer1"
     inkscape:document-units="mm"
     inkscape:cy="600.75049"
     inkscape:cx="537.90414"
     inkscape:zoom="0.57675097"
     inkscape:pageshadow="2"
     inkscape:pageopacity="0.0"
     borderopacity="1.0"
     bordercolor="#666666"
     pagecolor="#ffffff"
     id="base" />
  <metadata
     id="metadata5">
    <rdf:RDF>
      <cc:Work
         rdf:about="">
        <dc:format>image/svg+xml</dc:format>
        <dc:type
           rdf:resource="http://purl.org/dc/dcmitype/StillImage" />
        <dc:title></dc:title>
      </cc:Work>
    </rdf:RDF>
  </metadata>
  <g
     id="layer1"
     inkscape:groupmode="layer"
     inkscape:label="Lag 1">
    <g
       id="g979"
       transform="translate(212.147)" />
    <g
       id="g1258">
      <rect
         transform="matrix(0.99996685,-0.00814267,0.01056895,0.99994415,0,0)"
         y="0.15250617"
         x="-2.736948"
         height="297.46979"
         width="215.27147"
         id="rect895"
         style="fill:#008000;fill-opacity:1;stroke:#ffffff;stroke-width:0.565" />
      <g
         transform="translate(1.4454036,-40.11228)"
         id="g1234">
        <g
           style="fill:#ffffff;fill-opacity:1"
           transform="translate(4.1287316,-2.7524878)"
           id="g890">
          <g
             id="g867"
             transform="matrix(1.2407311,0,0,1.2394062,-10.912258,-83.074034)"
             style="fill:#ffffff;fill-opacity:1;stroke-width:0.806407">
            <path
               d="m 9.4045577,238.09031 v 4.93895 H 33.069144 v 43.8692 a 4.3906397,4.1159498 0 0 0 -2.083653,3.5018 4.3906397,4.1159498 0 0 0 4.390627,4.11586 4.3906397,4.1159498 0 0 0 4.390626,-4.11586 4.3906397,4.1159498 0 0 0 -2.083652,-3.5018 v -43.8692 H 62.38984 v -4.93895 z"
               style="fill:#ffffff;fill-opacity:1;stroke:#000000;stroke-width:0.403204;stroke-miterlimit:4;stroke-dasharray:none;stroke-opacity:1"
               id="rect833" />
            <path
               sodipodi:nodetypes="ccccccccccccc"
               transform="scale(0.26458333)"
               d="M 120.50195,403.12109 52.882812,586.04244 c 22.982813,4.07944 51.148438,4.33399 51.148438,4.33399 -15.34636,40.21103 -27.510853,104.14856 -40.746094,161.24857 23.842908,-1.13958 47.686394,-2.15039 71.529294,3.37305 v 0 c -7.3863,48.02506 -28.44219,93.77785 -35.117184,135.33398 l 60.683594,-0.86719 c 29.05686,-45.46681 29.21839,-115.60188 31.20898,-188.12304 -19.6503,1.86826 -39.30086,2.72122 -58.95117,0 -6.40296,-49.11062 8.82851,-105.43165 14.73828,-158.64649 -2.47037,-1.24444 -16.33604,-1.06443 -37.27734,0 z"
               style="fill:#ffffff;fill-opacity:1;stroke:#000000;stroke-width:1.52392;stroke-linecap:butt;stroke-linejoin:miter;stroke-miterlimit:4;stroke-dasharray:none;stroke-opacity:1"
               id="path846" />
          </g>
          <g
             id="g873"
             transform="matrix(1.1572148,0,0,1.1563497,129.11672,-63.151091)"
             style="fill:#ffffff;fill-opacity:1;stroke-width:0.864467">
            <path
               id="path869"
               style="fill:#ffffff;fill-opacity:1;stroke:#000000;stroke-width:0.432234;stroke-miterlimit:4;stroke-dasharray:none;stroke-opacity:1"
               d="m 9.4045577,238.09031 v 4.93895 H 33.069144 v 43.8692 a 4.3906397,4.1159498 0 0 0 -2.083653,3.5018 4.3906397,4.1159498 0 0 0 4.390627,4.11586 4.3906397,4.1159498 0 0 0 4.390626,-4.11586 4.3906397,4.1159498 0 0 0 -2.083652,-3.5018 v -43.8692 H 62.38984 v -4.93895 z" />
            <path
               id="path871"
               style="fill:#ffffff;fill-opacity:1;stroke:#000000;stroke-width:1.63364;stroke-linecap:butt;stroke-linejoin:miter;stroke-miterlimit:4;stroke-dasharray:none;stroke-opacity:1"
               d="M 120.50195,403.12109 52.882812,586.04244 c 22.982813,4.07944 51.148438,4.33399 51.148438,4.33399 -15.34636,40.21103 -27.510853,104.14856 -40.746094,161.24857 23.842908,-1.13958 47.686394,-2.15039 71.529294,3.37305 v 0 c -7.3863,48.02506 -28.44219,93.77785 -35.117184,135.33398 l 60.683594,-0.86719 c 29.05686,-45.46681 29.21839,-115.60188 31.20898,-188.12304 -19.6503,1.86826 -39.30086,2.72122 -58.95117,0 -6.40296,-49.11062 8.82851,-105.43165 14.73828,-158.64649 -2.47037,-1.24444 -16.33604,-1.06443 -37.27734,0 z"
               transform="scale(0.26458333)"
               sodipodi:nodetypes="ccccccccccccc" />
          </g>
          <g
             id="g879"
             transform="matrix(1.2063444,0,0,1.2052089,60.194803,-74.863115)"
             style="fill:#ffffff;fill-opacity:1;stroke-width:0.829341">
            <path
               id="path875"
               style="fill:#ffffff;fill-opacity:1;stroke:#000000;stroke-width:0.414671;stroke-miterlimit:4;stroke-dasharray:none;stroke-opacity:1"
               d="m 9.4045577,238.09031 v 4.93895 H 33.069144 v 43.8692 a 4.3906397,4.1159498 0 0 0 -2.083653,3.5018 4.3906397,4.1159498 0 0 0 4.390627,4.11586 4.3906397,4.1159498 0 0 0 4.390626,-4.11586 4.3906397,4.1159498 0 0 0 -2.083652,-3.5018 v -43.8692 H 62.38984 v -4.93895 z" />
            <path
               id="path877"
               style="fill:#ffffff;fill-opacity:1;stroke:#000000;stroke-width:1.56726;stroke-linecap:butt;stroke-linejoin:miter;stroke-miterlimit:4;stroke-dasharray:none;stroke-opacity:1"
               d="M 120.50195,403.12109 52.882812,586.04244 c 22.982813,4.07944 51.148438,4.33399 51.148438,4.33399 -15.34636,40.21103 -27.510853,104.14856 -40.746094,161.24857 23.842908,-1.13958 47.686394,-2.15039 71.529294,3.37305 v 0 c -7.3863,48.02506 -28.44219,93.77785 -35.117184,135.33398 l 60.683594,-0.86719 c 29.05686,-45.46681 29.21839,-115.60188 31.20898,-188.12304 -19.6503,1.86826 -39.30086,2.72122 -58.95117,0 -6.40296,-49.11062 8.82851,-105.43165 14.73828,-158.64649 -2.47037,-1.24444 -16.33604,-1.06443 -37.27734,0 z"
               sodipodi:nodetypes="ccccccccccccc"
               transform="scale(0.26458333)" />
          </g>
        </g>
        <g
           id="g1122"
           style="fill:#ffffff;fill-opacity:1;stroke-width:1.20908"
           transform="matrix(0.77722899,0,0,0.88012157,-273.52043,-33.091376)">
          <g
             id="g1174"
             transform="matrix(0.66930326,0.09601393,-0.1138614,0.61898179,683.2983,171.57492)"
             style="stroke-width:1.85417">
            <g
               id="g1070"
               style="fill:#ffffff;fill-opacity:1;stroke-width:1.85417">
              <g
                 id="g935"
                 style="fill:#ffffff;fill-opacity:1;stroke-width:1.85417"
                 transform="translate(-145.20957,-404.66407)">
                <g
                   id="g926"
                   transform="translate(-14.638463,329.89804)"
                   style="fill:#ffffff;fill-opacity:1;stroke-width:1.85417">
                  <path
                     sodipodi:nodetypes="ccccccccsccccccccc"
                     transform="scale(0.26458333)"
                     d="m -691.80664,-13.871094 c 4.71817,19.296529 25.16626,43.836182 -8.66992,50.28125 -103.88799,14.100828 -120.42697,98.082374 -180.32032,147.378904 -4.65335,14.73029 -25.21194,27.47477 -13.46679,46.30469 l 25.57422,11.48633 c 19.70236,-24.07684 28.27247,-55.21807 38.17578,-40.45313 5.24714,8.80663 10.06794,12.55568 -8.26758,32.43555 0.005,0.0478 0.0121,0.0853 0.0176,0.13281 -0.52863,1.26342 -16.64957,9.71945 -22.52735,13.59571 -8.38828,5.53187 16.53093,8.59007 29.69336,5.20117 l -0.0508,-0.13477 c 9.68555,1.78237 25.2389,-42.28776 34.07813,-52.96484 l 45.08008,-12.13672 c 19.07236,23.98814 38.14443,24.20026 57.21679,20.80664 -26.12394,60.68477 -62.65581,121.36992 -67.62109,182.05469 l 161.24805,62.41797 c 11.38412,-143.46392 138.77079,-311.94868 -64.15235,-409.189457 20.04968,-29.515599 4.60995,-46.1257142 -26.00781,-57.216797 z"
                     style="fill:#ffffff;fill-opacity:1;stroke:#000000;stroke-width:1.85417px;stroke-linecap:butt;stroke-linejoin:miter;stroke-opacity:1"
                     id="path892" />
                  <path
                     sodipodi:nodetypes="ccccc"
                     id="path898"
                     d="m -230.55578,49.306337 c -0.99945,1.395434 8.9e-4,2.540896 0.64877,3.730413 2.14992,0.473079 2.7465,-0.420413 3.73041,-0.973151 0.87912,-1.988759 -0.68973,-3.059525 -1.37863,-4.460277 -1.01911,0.561362 -2.56167,0.948241 -3.00055,1.703015 z"
                     style="fill:#ffffff;fill-opacity:1;stroke:#000000;stroke-width:0.490579px;stroke-linecap:butt;stroke-linejoin:miter;stroke-opacity:1" />
                  <path
                     sodipodi:nodetypes="ccccc"
                     id="path900"
                     d="m -226.89387,51.035712 c -0.52567,-0.0027 -1.28238,-0.454625 -2.49445,-1.791986 0.0634,-0.325307 0.13602,-0.639593 0.57344,-0.516091 1.27408,0.136237 1.82574,0.958776 2.35108,1.806321 0.0251,0.30205 0.0993,0.643312 -0.43007,0.501756 z"
                     style="fill:#ffffff;fill-opacity:1;stroke:#ffffff;stroke-width:0.490579px;stroke-linecap:butt;stroke-linejoin:miter;stroke-opacity:1" />
                  <path
                     sodipodi:nodetypes="cccc"
                     id="path902"
                     d="m -188.1426,23.842209 c -0.37801,-1.396767 2.22273,-2.822763 5.02795,-4.21699 -2.8444,-0.159476 -5.79237,-0.356611 -6.32548,0.324384 -0.57827,1.963171 -0.7536,3.660994 1.29753,3.892606 z"
                     style="fill:#ffffff;fill-opacity:1;stroke:#000000;stroke-width:0.490579px;stroke-linecap:butt;stroke-linejoin:miter;stroke-opacity:1" />
                  <path
                     sodipodi:nodetypes="cc"
                     id="path904"
                     d="m -191.62972,18.570972 c 2.5565,-2.766029 5.47778,-3.829773 9.32603,-0.567672"
                     style="fill:#ffffff;fill-opacity:1;stroke:#000000;stroke-width:1.0476;stroke-linecap:butt;stroke-linejoin:miter;stroke-miterlimit:4;stroke-dasharray:none;stroke-opacity:1" />
                  <path
                     sodipodi:nodetypes="ccccc"
                     id="path906"
                     d="m -224.47358,57.861959 c -0.34819,0.695266 -0.35379,1.304886 0.16219,1.784111 0.45899,0.01184 0.97658,0.199502 1.33808,-0.0811 0.0635,-1.037184 -0.19422,-1.271511 -0.32438,-1.824659 -0.46602,-0.477863 -0.81383,-0.128245 -1.17589,0.121648 z"
                     style="fill:#ffffff;fill-opacity:1;stroke:#000000;stroke-width:0.490579px;stroke-linecap:butt;stroke-linejoin:miter;stroke-opacity:1" />
                  <path
                     sodipodi:nodetypes="ccccc"
                     id="path908"
                     d="m -222.81112,56.199492 c -0.21102,0.554156 0.0869,1.108311 0.40548,1.662467 0.50949,-0.142022 0.9859,-0.339172 1.17589,-1.013698 -0.57642,-0.663893 -0.93957,-0.535629 -1.37863,-0.689317 z"
                     style="fill:#ffffff;fill-opacity:1;stroke:#000000;stroke-width:0.490579px;stroke-linecap:butt;stroke-linejoin:miter;stroke-opacity:1" />
                  <path
                     sodipodi:nodetypes="cccc"
                     id="path910"
                     d="m -223.51807,60.124069 c -0.23364,0.40548 -0.36729,0.810961 0.0405,1.216441 l 1.08633,0.08273 c -0.17427,-0.567284 -0.32202,-1.152244 -1.12683,-1.299171 z"
                     style="fill:#ffffff;fill-opacity:1;stroke:#000000;stroke-width:0.490579px;stroke-linecap:butt;stroke-linejoin:miter;stroke-opacity:1" />
                  <path
                     sodipodi:nodetypes="scccccss"
                     id="path912"
                     d="m -182.95246,6.4876759 c 1.27223,3.6209681 -13.16885,2.2387435 -19.30083,-0.4865757 -0.87581,-0.5947037 -1.33941,-1.1894073 -1.13535,-1.784111 2.79882,0.826985 3.82989,0.6438258 5.19014,0.6487676 -1.91302,-0.8225285 -2.67508,-1.9924726 -3.08164,-3.2438378 2.97352,2.2713461 5.94703,1.6799024 8.92055,1.459727 2.77237,0.1500639 6.4366,-5.0485841 7.29864,-2.59507032 z"
                     style="fill:#ffffff;fill-opacity:1;stroke:#000000;stroke-width:0.490579px;stroke-linecap:butt;stroke-linejoin:miter;stroke-opacity:1" />
                  <path
                     sodipodi:nodetypes="ccsccasccccssccscaccascacccscsscssssscscscccccccc"
                     id="path914"
                     d="m -179.05985,-4.0547975 c 4.97655,3.11561759 7.66133,8.0137148 7.13644,15.4082305 49.45809,20.685017 19.85317,77.172978 17.24425,109.473387 -0.43953,5.4418 9.28622,7.99229 9.40433,5.2756 v 0 c -2.14112,-1.68238 -5.22619,-2.19037 -5.96372,-4.58748 -1.39114,-4.52148 -0.26477,-13.9815 4.4392,-13.4798 5.26393,0.56143 9.11017,27.62896 15.13869,25.46051 l 2.52311,-0.91749 c -7.66285,-5.8494 -11.28181,-12.40826 -6.65185,-20.41429 4.47961,7.35941 8.8608,14.9508 16.28556,15.36806 0,0 4.62946,-0.92757 3.44061,-1.14687 -4.77394,-0.88061 -17.83001,-11.73381 -13.07432,-21.79053 0.54988,-1.16282 -12.49021,-10.225225 -9.86308,-14.679931 2.21728,1.52916 4.43456,3.768469 6.65184,4.587481 2.08395,1.412865 4.13024,0.783511 3.21124,0.229373 -7.99716,-4.82212 -8.0626,-12.191436 -7.56934,-12.156821 5.31339,0.222509 4.46305,5.282221 7.56934,6.422472 1.00485,0.368859 3.21124,0 3.21124,0 -3.60603,-2.905404 -3.59495,-5.810807 -5.27561,-8.716211 0,0 -3.96454,-0.984715 -5.04622,-2.523115 -1.86007,-2.645436 -4.27765,-10.443892 -1.14687,-9.633706 10.34561,2.677247 21.9343,37.771468 19.95553,23.166771 -0.18642,-3.669983 -7.43523,-9.13865 -4.22373,-11.820909 2.53329,-2.115824 9.04051,8.284218 8.58184,4.939689 -1.39905,-8.890143 -9.01146,-12.395372 -13.53307,-18.57929 6.73272,0.04427 8.58533,6.073144 11.92745,10.106367 0,0 3.46152,-0.07447 2.75249,-0.702036 -2.82593,-2.501241 -11.38674,-13.591348 -8.25747,-15.138683 0.46274,-0.433822 12.09405,18.715429 14.22119,20.873035 2.50626,2.542156 -4.4249,-13.008086 -1.83499,-10.551205 2.9739,2.821144 6.93181,1.549701 6.88122,1.376243 0,0 -16.5956,-9.912859 -11.4687,-10.321827 2.50056,-0.199467 12.26488,3.743827 10.09245,1.146868 -5.52402,-6.603502 -29.59492,-20.084045 -34.63546,-22.708023 -3.01164,-1.567787 13.15984,2.831949 10.09245,1.376244 -5.60023,-2.657727 -12.52064,-9.054186 -9.17496,-7.110592 23.32952,13.552717 18.24049,6.918273 18.12054,6.651844 0,0 -31.29562,-19.091408 -22.47864,-16.285552 8.85769,2.818809 9.86308,1.605617 9.86308,1.605617 -10.25361,-8.583213 -36.14016,-14.112465 -31.65361,-14.679934 6.00174,-0.759113 21.1024,-2.0643658 21.1024,-2.0643658 -8.53003,-4.4415047 -17.42556,-3.7659867 -26.14863,-5.5049755 3.02782,-1.8380026 6.58795,-3.35661647 7.56934,-6.4224715 -2.84822,-0.047862 -5.80108,2.09056125 -8.71621,3.4406097 l 3.89936,-4.8168536 c -2.89669,-2.0795269 -6.84978,0.7707753 -10.32183,1.3762439 0.1513,-2.2664692 0.44111,-4.5573823 -2.98186,-6.1930974 -1.59903,2.7211647 -1.62369,3.8679501 -1.29502,4.6614137 z"
                     style="fill:#ffffff;fill-opacity:1;stroke:#000000;stroke-width:0.490579px;stroke-linecap:butt;stroke-linejoin:miter;stroke-opacity:1" />
                </g>
                <path
                   style="fill:#ffffff;fill-opacity:1;stroke:#000000;stroke-width:0.490579px;stroke-linecap:butt;stroke-linejoin:miter;stroke-opacity:1"
                   d="m -216.48763,433.11653 c -5.85669,-3.33699 -17.17701,18.07424 -24.52953,27.18406"
                   id="path928"
                   sodipodi:nodetypes="cc" />
                <path
                   style="fill:#ffffff;fill-opacity:1;stroke:#000000;stroke-width:0.490579px;stroke-linecap:butt;stroke-linejoin:miter;stroke-opacity:1"
                   d="m -236.80017,455.11045 c 0.4986,0 -3.39213,-16.6096 -13.29973,-16.54355 -24.57459,0.16382 -56.87924,22.8314 -56.76715,22.70686 5.37772,1.56832 9.89683,3.38195 11.02902,6.16328 0,0 6.31356,-2.4403 7.78523,-5.19015 0.56123,-1.04867 -0.84104,-2.72718 0,-3.56822 1.07041,-1.07041 3.60361,1.18835 4.54136,0 18.31624,-23.21084 43.41702,-3.60693 42.49428,1.62192"
                   id="path930"
                   sodipodi:nodetypes="csccsssc" />
                <path
                   style="fill:#ffffff;fill-opacity:1;stroke:#000000;stroke-width:0.490579px;stroke-linecap:butt;stroke-linejoin:miter;stroke-opacity:1"
                   d="m -224.09838,510.12772 c -2.9054,-6.34601 -3.25906,-12.69203 -8.71621,-19.03804 -1.26851,-11.87322 -6.643,-18.81928 -9.97777,-28.213 -5.28186,-12.76374 -14.55792,-12.74607 -24.08427,-11.92744 -16.30492,5.06248 -14.44215,23.75073 -21.66276,35.62644 0,0 6.25106,0.11106 8.59618,-1.6219 0.93356,-0.68987 0.49054,-2.82194 1.62192,-3.08165 1.24361,-0.28548 1.84682,2.59201 3.08165,2.27068 1.26441,-0.32902 1.6219,-3.56823 1.6219,-3.56823 l -0.81095,-3.08163 10.21809,-12.00221 5.67672,-1.9463 c 3.1329,3.19752 5.81604,-1.02613 9.73151,15.08384 0.29607,5.47461 0.90966,10.79047 2.91946,15.40822 4.47185,7.14637 6.81545,12.46853 8.27178,17.03017 l 3.08165,2.75725 c 4.70386,-0.61866 7.50533,-2.1885 10.4311,-3.6962 z"
                   id="path932"
                   sodipodi:nodetypes="cccccsssccccccccc" />
                <path
                   style="fill:#ffffff;fill-opacity:1;stroke:#000000;stroke-width:0.490579px;stroke-linecap:butt;stroke-linejoin:miter;stroke-opacity:1"
                   d="m -252.93826,470.59977 c -1.39401,-1.58655 -2.49402,-3.30534 -5.02795,-4.37917 -5.61399,4.64951 -8.57044,9.29901 -12.81317,13.94852 -1.06352,5.2277 -2.99632,4.01601 -4.54136,5.67671 -2.40084,2.05552 -2.33731,3.43893 -2.43287,4.86574 1.70151,-0.15321 3.2153,0.81992 4.70355,1.9463 1.04747,-1.22783 1.89053,-2.46272 1.78412,-3.73041 0.59534,-1.32984 0.68814,-2.7602 2.27068,-3.8926 1.24433,-1.13107 2.77265,-0.84215 4.21699,-0.97314 2.50662,-4.106 2.73806,-8.0224 7.62302,-12.32659 z"
                   id="path934"
                   sodipodi:nodetypes="ccccccccccc" />
                <path
                   id="path936"
                   style="fill:#ffffff;fill-opacity:1;stroke:#000000;stroke-width:1.85417px;stroke-linecap:butt;stroke-linejoin:miter;stroke-opacity:1"
                   d="m -953.18359,1794.9688 c -12.19767,3.2282 -20.90952,21.666 -27.3086,35.9765 -14.11347,21.1142 -36.22731,29.8656 -39.01171,68.4883 -0.1516,5.8765 -1.4103,14.3172 0.6836,14.9922 11.3138,1.2928 18.4058,-6.7018 25.7578,-14.125 3.347,-8.1287 16.92655,0.2199 14.30469,-5.2012 -3.38669,-7.0024 2.15043,-8.6519 3.90039,-12.5723 l 30.3418,-51.1484 c -3.71256,-10.5589 -9.28298,-17.5513 -8.66797,-36.4101 z"
                   transform="scale(0.26458333)" />
                <path
                   style="fill:#ffffff;fill-opacity:1;stroke:#000000;stroke-width:0.490579px;stroke-linecap:butt;stroke-linejoin:miter;stroke-opacity:1"
                   d="m -298.10871,468.4913 c -3.37899,-2.12557 -6.75799,-3.82045 -10.13698,-4.86577 -1.25128,1.64474 -2.5965,2.91376 -3.64932,5.35234 0,0 6.62122,3.22877 9.97479,2.51396 1.58143,-0.33708 3.81151,-3.00053 3.81151,-3.00053 z"
                   id="path938"
                   sodipodi:nodetypes="cccsc" />
                <path
                   style="fill:#ffffff;fill-opacity:1;stroke:#000000;stroke-width:0.490579px;stroke-linecap:butt;stroke-linejoin:miter;stroke-opacity:1"
                   d="m -311.89501,473.35704 c -0.66044,-0.83492 -0.40784,-1.48723 0,-2.10849 3.54847,0.98504 4.68652,0.5927 6.89316,0.81097 0,0 -0.44903,1.42116 -1.05426,1.70302 -2.34962,1.09424 -5.84202,-0.40446 -5.8389,-0.4055 z"
                   id="path940"
                   sodipodi:nodetypes="cccsc" />
                <path
                   style="fill:#ffffff;fill-opacity:1;stroke:#000000;stroke-width:0.490579px;stroke-linecap:butt;stroke-linejoin:miter;stroke-opacity:1"
                   d="m -278.97005,489.00857 c 0,0 -0.80028,-2.33464 -1.78411,-2.3518 -3.24799,-0.0567 -8.44065,1.47083 -8.43399,1.45973 -1.07628,2.24116 -1.41871,4.1154 -2.10849,6.16331 4.59211,-0.95167 8.33505,-3.31861 12.32659,-5.27124 z"
                   id="path942"
                   sodipodi:nodetypes="csccc" />
                <path
                   style="fill:#ffffff;fill-opacity:1;stroke:#000000;stroke-width:0.490579px;stroke-linecap:butt;stroke-linejoin:miter;stroke-opacity:1"
                   d="m -290.90355,495.56249 c 4.10885,-1.9187 8.3835,-4.33478 12.30019,-5.67701 l 0.2867,0.63077 c -4.06051,2.15326 -8.24109,3.73522 -12.32884,5.64835 z"
                   id="path944"
                   sodipodi:nodetypes="ccccc" />
                <path
                   style="fill:#ffffff;fill-opacity:1;stroke:#000000;stroke-width:0.490579px;stroke-linecap:butt;stroke-linejoin:miter;stroke-opacity:1"
                   d="m -274.34759,493.71212 c 0,0 -2.72829,-2.1232 -3.9737,-1.45973 -3.63467,1.93629 -5.8524,5.69564 -5.8389,5.67674 0,0 6.37108,0.5761 8.92055,-0.0811 1.36569,-0.35205 0.89205,-4.13591 0.89205,-4.13591 z"
                   id="path946"
                   sodipodi:nodetypes="cscsc" />
                <path
                   style="fill:#ffffff;fill-opacity:1;stroke:#000000;stroke-width:0.490579px;stroke-linecap:butt;stroke-linejoin:miter;stroke-opacity:1"
                   d="m -276.38052,498.81986 c 0,0 -0.27834,1.25532 -0.77984,1.5334 -1.38758,0.76941 -4.74156,-0.41709 -4.74156,-0.41709 1.72811,-0.717 3.46551,-1.4055 5.5214,-1.11631 z"
                   id="path948"
                   sodipodi:nodetypes="cacc" />
                <path
                   style="fill:#ffffff;fill-opacity:1;stroke:#000000;stroke-width:0.490579px;stroke-linecap:butt;stroke-linejoin:miter;stroke-opacity:1"
                   d="m -266.88677,512.2831 -0.89204,-4.54137 c -0.0321,0.0229 2.76232,-2.01888 6.48767,-3.08165 0.83062,-0.23696 2.43287,0.89207 2.43287,0.89207 -1.35483,2.43241 -5.31441,4.49272 -8.0285,6.73095 z"
                   id="path953"
                   sodipodi:nodetypes="ccscc" />
                <path
                   style="fill:#ffffff;fill-opacity:1;stroke:#000000;stroke-width:0.490579px;stroke-linecap:butt;stroke-linejoin:miter;stroke-opacity:1"
                   d="m -268.42759,513.82392 -2.91944,-8.59618 -1.13536,0.32441 1.62193,9.08275 z"
                   id="path955" />
                <path
                   style="fill:#ffffff;fill-opacity:1;stroke:#000000;stroke-width:0.490579px;stroke-linecap:butt;stroke-linejoin:miter;stroke-opacity:1"
                   d="m -265.67032,513.41845 8.19068,-6.89316 0.97316,1.05425 -8.43398,6.89314 z"
                   id="path957" />
                <path
                   style="fill:#ffffff;fill-opacity:1;stroke:#000000;stroke-width:0.490579px;stroke-linecap:butt;stroke-linejoin:miter;stroke-opacity:1"
                   d="m -228.69057,512.36419 c 31.87308,24.77467 66.38281,46.38535 104.36987,63.82324 7.8594,11.9753 0.96735,13.02078 3.66999,18.80865 4.82988,10.34348 10.41898,24.12401 21.561152,26.6074 25.447365,5.67176 7.190675,39.22092 4.397458,40.15199 l -15.92181,8.4753 c 5.2373,1.57229 8.38666,5.53079 10.60686,10.55119 7.065169,-6.39964 6.521309,1.90362 8.716207,0 1.633713,-1.41691 0.917496,-6.42247 0.917496,-6.42247 0,0 24.123293,-22.45349 27.066128,-36.24108 1.797724,-8.42259 -5.3129,-13.56179 -6.88122,-20.64365 C -78.608177,579.45483 9.2914914,545.03863 -83.492127,501.41152 -114.90015,486.64338 -173.82409,449.6313 -173.82409,449.6313"
                   id="path959"
                   sodipodi:nodetypes="ccascccacsasc" />
                <path
                   style="fill:#ffffff;fill-opacity:1;stroke:#000000;stroke-width:0.490579px;stroke-linecap:butt;stroke-linejoin:miter;stroke-opacity:1"
                   d="m -96.107696,628.94344 c -8.982244,36.12716 -20.953284,29.13036 -31.882984,37.15859 0.90919,3.45722 2.79213,4.96695 4.58748,6.65186 7.78614,-5.02057 15.81779,-9.79565 25.116451,-13.3037 9.617501,-15.00106 6.380285,-23.01587 2.179053,-30.50675 z"
                   id="path961"
                   sodipodi:nodetypes="ccccc" />
                <path
                   style="fill:#ffffff;fill-opacity:1;stroke:#000000;stroke-width:0.490579px;stroke-linecap:butt;stroke-linejoin:miter;stroke-opacity:1"
                   d="m -127.18787,674.01542 c -1.03754,-1.60725 -2.16632,-3.31374 -3.21124,-6.42247 -2.76068,0.25191 -4.9992,0.89543 -6.53715,2.06439 0,0 2.54857,4.88984 4.93154,5.61964 1.58702,0.48603 4.81685,-1.26156 4.81685,-1.26156 z"
                   id="path963"
                   sodipodi:nodetypes="cccsc" />
                <path
                   style="fill:#ffffff;fill-opacity:1;stroke:#000000;stroke-width:0.490579px;stroke-linecap:butt;stroke-linejoin:miter;stroke-opacity:1"
                   d="m -138.48454,670.68951 4.70217,5.04623 -1.66296,0.63077 -4.35811,-5.16091 z"
                   id="path965" />
                <path
                   style="fill:#ffffff;fill-opacity:1;stroke:#000000;stroke-width:0.490579px;stroke-linecap:butt;stroke-linejoin:miter;stroke-opacity:1"
                   d="m -102.3008,681.01135 c -0.41185,-0.87185 -3.66244,-6.57436 -10.66588,-9.40435 -3.36964,0.64332 -5.95823,2.22389 -7.79872,4.70218 12.18115,0.19267 21.147729,10.38209 18.4646,4.70217 z"
                   id="path967"
                   sodipodi:nodetypes="sccs" />
                <path
                   style="fill:#ffffff;fill-opacity:1;stroke:#000000;stroke-width:0.490579px;stroke-linecap:butt;stroke-linejoin:miter;stroke-opacity:1"
                   d="m -103.33298,683.07571 -17.89117,-4.24341 -0.57343,1.83499 18.12054,3.89935 z"
                   id="path969" />
                <path
                   style="fill:#ffffff;fill-opacity:1;stroke:#000000;stroke-width:0.490579px;stroke-linecap:butt;stroke-linejoin:miter;stroke-opacity:1"
                   d="m -67.435949,623.43847 c 4.689161,-3.97233 8.749329,56.64982 6.88122,55.37414 -6.996847,-4.77793 -12.014858,6.03982 -10.551205,7.01559 -4.010617,-1.56945 -7.320685,-3.55922 -9.174959,-6.42247 1.415987,-4.64407 4.359953,-8.52414 10.092455,-11.00995 l -2.752487,-14.2212"
                   id="path971"
                   sodipodi:nodetypes="cscccc" />
                <path
                   sodipodi:nodetypes="cccc"
                   id="path880"
                   d="m -68.58282,692.25067 c -4.752165,-2.99131 -1.138062,-3.13049 -14.621623,-9.09842 -3.135265,2.40607 -4.032088,5.93136 -6.001099,8.92056 7.091494,0.81967 13.963737,0.87197 20.622722,0.17786 z"
                   style="fill:#ffffff;fill-opacity:1;stroke:#000000;stroke-width:0.490579px;stroke-linecap:butt;stroke-linejoin:miter;stroke-opacity:1" />
                <path
                   sodipodi:nodetypes="ccccc"
                   id="path884"
                   d="m -89.04335,694.01911 c 6.955012,-0.27446 13.933043,-0.641 20.679465,-0.0811 0.196435,0.78392 0.804876,1.56785 0,2.35177 -6.560901,0.69548 -13.533081,0.36275 -20.517273,0 -0.367383,-0.75689 -0.839032,-1.51378 -0.162192,-2.27067 z"
                   style="fill:#ffffff;fill-opacity:1;stroke:#000000;stroke-width:0.490579px;stroke-linecap:butt;stroke-linejoin:miter;stroke-opacity:1" />
                <path
                   sodipodi:nodetypes="ccacccccccc"
                   id="path886"
                   d="m -68.233885,614.52401 c 9.925079,5.69652 21.908404,7.96262 29.518924,17.51674 -2.696951,17.31637 3.294855,34.67366 -3.892606,49.63072 -3.081385,6.41235 -11.850155,10.53656 -15.570421,14.59726 7.352698,-0.64877 12.975352,0 16.867957,1.9463 0.277249,-3.73703 1.453845,-6.77458 9.407129,-4.54136 1.135324,-21.05788 4.704043,-45.76586 11.029049,-74.60827 -1.04401,-5.07204 -4.169817,-6.67442 -7.785211,-7.46082 l -10.704666,1.9463 -23.031248,-15.89482 c -3.371835,4.73169 -8.942791,8.08893 -5.838907,16.86795 z"
                   style="fill:#ffffff;fill-opacity:1;stroke:#000000;stroke-width:0.490579px;stroke-linecap:butt;stroke-linejoin:miter;stroke-opacity:1" />
                <path
                   sodipodi:nodetypes="accca"
                   id="path888"
                   d="m -40.753042,700.94615 c -5.302011,-3.06532 -18.084396,-3.24383 -18.084396,-3.24383 -2.638279,3.31472 -2.16847,6.28409 -3.081645,9.40713 9.084778,-0.0892 19.980646,-0.6479 23.761113,-3.08165 0,0 -1.432468,-2.40949 -2.595072,-3.08165 z"
                   style="fill:#ffffff;fill-opacity:1;stroke:#000000;stroke-width:0.490579px;stroke-linecap:butt;stroke-linejoin:miter;stroke-opacity:1" />
                <path
                   sodipodi:nodetypes="ccccc"
                   id="path890"
                   d="m -62.391745,710.13461 c 6.943009,-1.27051 15.903421,-2.54103 24.490976,-3.81154 0.163768,0.62174 0.613337,1.24347 -0.243287,1.86521 -8.121234,1.83404 -16.397774,2.89156 -24.734263,3.64932 -0.611841,-0.72247 0.07711,-1.18478 0.486574,-1.70299 z"
                   style="fill:#ffffff;fill-opacity:1;stroke:#000000;stroke-width:0.490579px;stroke-linecap:butt;stroke-linejoin:miter;stroke-opacity:1" />
                <path
                   sodipodi:nodetypes="cccccccccccccccccccc"
                   id="path893"
                   d="m -39.222949,544.07508 c 5.041393,22.23338 29.4792702,59.20944 44.2691765,60.32535 -1.4436426,-3.97207 -8.6529781,-3.78529 -6.5616101,-7.95375 13.5026766,1.21591 28.8294666,4.06885 34.3158626,-1.90934 l -8.023316,-0.47702 c 16.08212,-0.51795 8.125454,-16.64002 12.152046,-24.98349 -4.362975,-0.88701 -5.356478,5.98914 -7.080379,7.74785 4.862678,-9.13984 -2.170971,-16.93062 6.621632,-30.9146 -4.015889,1.69163 -8.018246,4.1546 -11.927447,11.92744 11.835387,-21.27852 9.781944,-23.16243 7.110593,-30.27738 -10.402747,23.57952 -8.107475,13.00574 -12.156821,19.4968 -0.01171,-11.48778 2.80701,-21.13578 7.110593,-29.81862 -8.733504,0.48909 -12.955693,9.98077 -18.6186461,18.65799 -0.7255136,-4.47363 -0.4663173,-9.2832 0.9568502,-15.90551 -5.8221775,8.20144 -9.995789,17.13558 -11.9274469,27.06614 -2.5187204,-2.53576 -3.2343109,-7.37236 -4.8168536,-11.00995 0.093809,13.75206 5.2862719,16.96691 8.25746337,24.77238 -1.91478647,4.10046 -7.60180027,3.24987 -12.84494297,2.98186 1.834286,-0.71479 3.9819046,-0.90735 4.5874796,-3.66999 -9.8736226,2.46254 -20.9494886,-10.70411 -31.4242336,-16.05616 z"
                   style="fill:#ffffff;fill-opacity:1;stroke:#000000;stroke-width:0.490579px;stroke-linecap:butt;stroke-linejoin:miter;stroke-opacity:1" />
              </g>
              <path
                 style="fill:#ffffff;fill-opacity:1;stroke:#000000;stroke-width:0.490579px;stroke-linecap:butt;stroke-linejoin:miter;stroke-opacity:1"
                 d="m -598.37373,55.63653 c 3.84324,9.404214 9.1888,16.519165 10.10174,30.388594 5.68722,7.871403 4.23497,11.697113 5.84903,17.260386"
                 id="path937"
                 sodipodi:nodetypes="ccc"
                 transform="translate(212.147)" />
              <path
                 id="path981"
                 d="m -438.91086,17.943002 c 0.003,0.0032 0.006,0.01276 0.01,0.0096 0.0169,-0.01674 -0.0473,-0.01331 -0.071,-0.01014 -0.007,0.001 -0.0177,0.02027 -0.0101,0.02027 0.007,0 0,-0.01351 0,-0.02027 0,-0.01352 0.0135,-0.04055 0,-0.04055 -0.004,0 0.01,0.05095 -0.01,0.07096 -0.0161,0.01603 -0.008,-0.02615 -0.0101,-0.03041 -0.003,-0.0043 -0.0148,-0.01017 -0.0101,-0.01014 0.0342,1.96e-4 0.068,0.0071 0.10205,0.01066"
                 style="fill:#ffffff;fill-opacity:1;stroke:#000000;stroke-width:0.490579px;stroke-linecap:butt;stroke-linejoin:miter;stroke-opacity:1" />
              <path
                 id="path983"
                 d="m -439.00206,17.942462 c -0.022,0.04433 -0.0101,0.03134 0.01,0.0507 0.005,0.0053 0.003,0.02028 0.01,0.02028 0.01,0 0,-0.01693 -0.0196,-0.07098 z"
                 style="fill:#ffffff;fill-opacity:1;stroke:#000000;stroke-width:0.490579px;stroke-linecap:butt;stroke-linejoin:miter;stroke-opacity:1" />
            </g>
            <path
               style="fill:#ffffff;fill-opacity:1;stroke:none;stroke-width:0.490579px;stroke-linecap:butt;stroke-linejoin:miter;stroke-opacity:1"
               d="m -361.69719,28.452461 -24.52954,27.184069 10.10174,30.388594 6.20212,17.823946 50.88922,-58.881839 z"
               id="path1076" />
            <rect
               transform="matrix(0.99725064,-0.07410241,-0.05316247,0.99858588,0,0)"
               y="1.5844339"
               x="-362.60989"
               height="11.963758"
               width="34.383995"
               id="rect1124"
               style="fill:#ffffff;fill-opacity:1;stroke:none;stroke-width:1.05187" />
            <rect
               style="fill:#ffffff;fill-opacity:1;stroke:none;stroke-width:1.05187"
               id="rect1126"
               width="34.383995"
               height="11.963758"
               x="-353.15771"
               y="9.4117994"
               transform="matrix(0.99725064,-0.07410241,-0.05316247,0.99858588,0,0)" />
          </g>
        </g>
      </g>
      <g
         transform="translate(236.50088,-17.108038)"
         id="g1256">
        <text
           xml:space="preserve"
           style="font-style:normal;font-weight:normal;font-size:69.9691px;line-height:1.25;font-family:sans-serif;fill:#ffffff;fill-opacity:1;stroke:#000000;stroke-width:0.264583;stroke-opacity:1"
           x="-185.59024"
           y="334.84451"
           id="text1238"
           transform="scale(1.0911712,0.91644647)"><tspan
             sodipodi:role="line"
             id="tspan1236"
             x="-185.59024"
             y="334.84451"
             style="fill:#ffffff;fill-opacity:1;stroke:#000000;stroke-width:0.264583;stroke-opacity:1">K</tspan></text>
        <text
           transform="scale(1.0911712,0.91644647)"
           id="text1244"
           y="335.02148"
           x="-142.33594"
           style="font-style:normal;font-weight:normal;font-size:69.9691px;line-height:1.25;font-family:sans-serif;fill:#ffffff;fill-opacity:1;stroke:#000000;stroke-width:0.264583;stroke-opacity:1"
           xml:space="preserve"><tspan
             style="fill:#ffffff;fill-opacity:1;stroke:#000000;stroke-width:0.264583;stroke-opacity:1"
             y="335.02148"
             x="-142.33594"
             id="tspan1242"
             sodipodi:role="line">K</tspan></text>
        <text
           xml:space="preserve"
           style="font-style:normal;font-weight:normal;font-size:70.116px;line-height:1.25;font-family:sans-serif;fill:#ffffff;fill-opacity:1;stroke:#000000;stroke-width:0.264583;stroke-opacity:1"
           x="-97.289604"
           y="334.56052"
           id="text1248"
           transform="scale(1.0896698,0.91770919)"><tspan
             sodipodi:role="line"
             id="tspan1246"
             x="-97.289604"
             y="334.56052"
             style="fill:#ffffff;fill-opacity:1;stroke:#000000;stroke-width:0.264583;stroke-opacity:1">P</tspan></text>
      </g>
    </g>
  </g>
</svg>
