<?xml version="1.0" encoding="UTF-8" standalone="no"?>
<svg
   xmlns:dc="http://purl.org/dc/elements/1.1/"
   xmlns:cc="http://creativecommons.org/ns#"
   xmlns:rdf="http://www.w3.org/1999/02/22-rdf-syntax-ns#"
   xmlns:svg="http://www.w3.org/2000/svg"
   xmlns="http://www.w3.org/2000/svg"
   xmlns:sodipodi="http://sodipodi.sourceforge.net/DTD/sodipodi-0.dtd"
   xmlns:inkscape="http://www.inkscape.org/namespaces/inkscape"
   inkscape:version="1.0 (4035a4fb49, 2020-05-01)"
   sodipodi:docname="box.svg"
   id="svg15"
   preserveAspectRatio="xMidYMid meet"
   version="1.1"
   viewBox="0 0 1010 710"
   height="710mm"
   width="1010mm">
  <metadata
     id="metadata21">
    <rdf:RDF>
      <cc:Work
         rdf:about="">
        <dc:format>image/svg+xml</dc:format>
        <dc:type
           rdf:resource="http://purl.org/dc/dcmitype/StillImage" />
        <dc:title></dc:title>
      </cc:Work>
    </rdf:RDF>
  </metadata>
  <defs
     id="defs19" />
  <sodipodi:namedview
     inkscape:current-layer="svgGroup"
     inkscape:window-maximized="1"
     inkscape:window-y="137"
     inkscape:window-x="2552"
     inkscape:cy="1388.7581"
     inkscape:cx="2822.4844"
     inkscape:zoom="0.18992405"
     showgrid="false"
     id="namedview17"
     inkscape:window-height="1017"
     inkscape:window-width="1920"
     inkscape:pageshadow="2"
     inkscape:pageopacity="0"
     guidetolerance="10"
     gridtolerance="10"
     objecttolerance="10"
     borderopacity="1"
     bordercolor="#666666"
     pagecolor="#ffffff" />
  <g
     style="fill:none;stroke:#000000;stroke-width:0.25mm"
     fill="none"
     stroke-width="0.25mm"
     stroke="#000"
     font-size="12px"
     fill-rule="evenodd"
     stroke-linecap="round"
     id="svgGroup">
    <path
       vector-effect="non-scaling-stroke"
       style="stroke:#083c3c;stroke-width:0.025;stroke-opacity:1;stroke-miterlimit:4;stroke-dasharray:none"
       stroke-width="0.1"
       stroke="#FF0000"
       id="front_outsideCutPath"
       d="m 622.7724,126.16552 v 32 h 6 v 27 h -6 v 27 h 6 v 27 h -6 v 27 h 6 v 27 h -6 v 27 h 6 v 27 h -6 v 27 h 6 v 27 h -6 v 27 h 6 v 27 h -6 v 27 h 6 v 27 h -6 v 27 h 6 v 27 h -6 v 27 h 6 v 27 h -6 v 27 h 6 v 27 h -6 v 32 h 45 v -6 h 27 v 6 h 27 v -6 h 27 v 6 h 27 v -6 h 27 v 6 h 27 v -6 h 27 v 6 h 27 v -6 h 27 v 6 h 27 v -6 h 27 v 6 h 27 18 v -32 h -6 v -27 h 6 v -27 h -6 v -27 h 6 v -27 h -6 v -27 h 6 v -27 h -6 v -27 h 6 v -27 h -6 v -27 h 6 v -27 h -6 v -27 h 6 v -27 h -6 v -27 h 6 v -27 h -6 v -27 h 6 v -27 h -6 v -27 h 6 v -27 h -6 v -27 h 6 v -32 h -45 v 6 h -27 v -6 h -27 v 6 h -27 v -6 h -27 v 6 h -27 v -6 h -27 v 6 h -27 v -6 h -27 v 6 h -27 v -6 h -27 v 6 h -27 v -6 h -27 z" />
    <path
       vector-effect="non-scaling-stroke"
       style="fill:#777777;stroke:#083c3c;stroke-opacity:1;stroke-width:0.025;stroke-miterlimit:4;stroke-dasharray:none"
       fill="#777777"
       stroke="#777777"
       id="front_labelLayer"
       d="m 853.75453,416.03228 h -6.274 v -26.795 q 0,-3.228 -0.936,-5.412 a 7.463,7.463 0 0 0 -1.369,-2.147 7.073,7.073 0 0 0 -2.901,-1.851 q -1.139,-0.402 -2.541,-0.553 a 16.632,16.632 0 0 0 -1.776,-0.09 18.987,18.987 0 0 0 -3.554,0.31 q -1.978,0.377 -3.502,1.215 a 8.845,8.845 0 0 0 -2.468,1.99 q -2.763,3.211 -3.001,10.24 a 40.191,40.191 0 0 0 -0.023,1.362 v 21.731 h -6.273 v -41.421 h 5.102 l 1.02,5.669 h 0.302 a 12.703,12.703 0 0 1 4.976,-4.528 15.276,15.276 0 0 1 0.429,-0.215 16.988,16.988 0 0 1 6.045,-1.613 20.542,20.542 0 0 1 1.702,-0.069 24.769,24.769 0 0 1 4.217,0.335 q 4.418,0.765 7.046,3.274 a 10.873,10.873 0 0 1 2.649,4.16 q 1.13,3.046 1.13,7.386 z m -120.522,-41.421 v 4.875 h -10.544 v 36.546 h -6.274 v -36.546 h -7.407 v -2.834 l 7.407,-2.268 v -2.305 q 0,-13.181 9.943,-14.983 a 19.069,19.069 0 0 1 3.398,-0.286 20.203,20.203 0 0 1 2.859,0.219 q 1.391,0.199 2.938,0.581 a 40.611,40.611 0 0 1 1.913,0.523 l -1.625,5.027 q -2.577,-0.833 -4.62,-1.074 a 13.492,13.492 0 0 0 -1.578,-0.098 8.461,8.461 0 0 0 -2.04,0.231 5.433,5.433 0 0 0 -3.213,2.131 q -1.543,2.143 -1.686,6.634 a 29.62,29.62 0 0 0 -0.015,0.944 v 2.683 z m 152.457,36.243 v 4.8 a 6.171,6.171 0 0 1 -0.732,0.291 q -0.908,0.301 -2.272,0.522 a 27.191,27.191 0 0 1 -1.773,0.23 q -0.956,0.091 -1.799,0.091 a 16.386,16.386 0 0 1 -4.829,-0.65 q -7.189,-2.219 -7.189,-12.011 v -24.641 h -5.934 v -3.023 l 5.934,-2.608 2.645,-8.843 h 3.629 v 9.599 h 12.018 v 4.875 h -12.018 v 24.377 a 12.633,12.633 0 0 0 0.182,2.218 q 0.387,2.165 1.594,3.526 1.776,2.003 4.875,2.003 a 20.603,20.603 0 0 0 3.018,-0.216 18.997,18.997 0 0 0 0.195,-0.029 33.938,33.938 0 0 0 0.905,-0.156 q 0.927,-0.173 1.551,-0.355 z m -121.051,-36.545 -0.869,5.82 a 27.65,27.65 0 0 0 -1.988,-0.367 q -0.992,-0.144 -1.874,-0.184 a 14.715,14.715 0 0 0 -0.673,-0.016 q -5.027,0 -8.598,4.081 a 14.326,14.326 0 0 0 -3.456,8.045 19.042,19.042 0 0 0 -0.116,2.122 v 22.222 h -6.273 v -41.421 h 5.177 l 0.719,7.672 h 0.302 a 21.186,21.186 0 0 1 2.369,-3.384 16.184,16.184 0 0 1 3.186,-2.852 q 3.251,-2.192 7.143,-2.192 a 28.801,28.801 0 0 1 2.579,0.11 21.021,21.021 0 0 1 2.372,0.344 z m 42.924,27.279 a 32.406,32.406 0 0 0 0.576,-6.304 q 0,-4.027 -0.853,-7.373 a 19.535,19.535 0 0 0 -4.268,-8.274 q -5.121,-5.782 -13.813,-5.782 -8.995,0 -14.059,5.65 a 17.332,17.332 0 0 0 -2.129,2.952 q -2.936,5.115 -2.936,12.827 a 31.384,31.384 0 0 0 0.395,5.083 23.208,23.208 0 0 0 1.949,6.33 20.62,20.62 0 0 0 0.456,0.894 16.984,16.984 0 0 0 6.195,6.589 q 4.308,2.608 9.864,2.608 a 24.361,24.361 0 0 0 4.254,-0.356 16.726,16.726 0 0 0 9.843,-5.332 q 3.388,-3.777 4.526,-9.512 z m -30.981,-6.304 a 31.77,31.77 0 0 0 0.302,4.538 q 0.333,2.304 1.034,4.17 a 13.162,13.162 0 0 0 1.838,3.385 q 3.175,4.158 9.335,4.158 a 14.572,14.572 0 0 0 3.845,-0.478 10.141,10.141 0 0 0 5.509,-3.661 13.468,13.468 0 0 0 2.097,-4.084 q 1.097,-3.356 1.097,-8.028 a 31.303,31.303 0 0 0 -0.297,-4.461 q -0.677,-4.687 -2.897,-7.539 a 10.32,10.32 0 0 0 -6.416,-3.828 15.823,15.823 0 0 0 -3.013,-0.272 14.931,14.931 0 0 0 -3.717,0.435 9.992,9.992 0 0 0 -5.58,3.609 12.971,12.971 0 0 0 -2.017,3.896 q -0.595,1.791 -0.874,3.982 a 33.151,33.151 0 0 0 -0.246,4.178 z" />
    <path
       vector-effect="non-scaling-stroke"
       style="stroke:#083c3c;stroke-width:0.025;stroke-opacity:1;stroke-miterlimit:4;stroke-dasharray:none"
       stroke-width="0.1"
       stroke="#FF0000"
       id="left_outsideCutPath"
       d="m 509.6,0 v 32 h -6 v 27 h 6 v 27 h -6 v 27 h 6 v 27 h -6 v 27 h 6 v 27 h -6 v 27 h 6 v 27 h -6 v 27 h 6 v 27 h -6 v 27 h 6 v 27 h -6 v 27 h 6 v 27 h -6 v 27 h 6 v 27 h -6 v 27 h 6 v 27 h -6 v 27 h 6 v 32 h 10.3 v -6 h 27 v 6 h 27 v -6 h 27 v 6 h 10.3 v -32 h 6 v -27 h -6 v -27 h 6 v -27 h -6 v -27 h 6 v -27 h -6 v -27 h 6 v -27 h -6 v -27 h 6 v -27 h -6 v -27 h 6 v -27 h -6 v -27 h 6 v -27 h -6 v -27 h 6 v -27 h -6 v -27 h 6 V 86 h -6 V 59 h 6 V 32 h -6 V 0 h -10.3 v 6 h -27 V 0 h -27 v 6 h -27 V 0 Z" />
    <path
       vector-effect="non-scaling-stroke"
       style="fill:#777777;stroke:#083c3c;stroke-opacity:1;stroke-width:0.025;stroke-miterlimit:4;stroke-dasharray:none"
       fill="#777777"
       stroke="#777777"
       id="left_labelLayer"
       d="m 566.33006,282.60588 v 1.431 h -3.095 v 10.728 h -1.842 v -10.728 h -2.174 v -0.832 l 2.174,-0.666 v -0.676 a 7.464,7.464 0 0 1 0.174,-1.692 q 0.652,-2.79 3.742,-2.79 0.965,0 2.263,0.388 l -0.477,1.476 q -0.756,-0.245 -1.356,-0.315 a 3.96,3.96 0 0 0 -0.463,-0.029 2.484,2.484 0 0 0 -0.599,0.067 1.595,1.595 0 0 0 -0.943,0.626 2.131,2.131 0 0 0 -0.282,0.568 q -0.217,0.646 -0.217,1.656 v 0.788 z m -8.62,5.247 v 1.165 h -8.376 q 0.056,2.141 1.082,3.251 a 3.346,3.346 0 0 0 1.757,0.99 5.07,5.07 0 0 0 1.133,0.119 9.726,9.726 0 0 0 3.642,-0.721 11.147,11.147 0 0 0 0.241,-0.1 v 1.642 a 11.056,11.056 0 0 1 -1.008,0.381 8.454,8.454 0 0 1 -0.84,0.224 q -0.677,0.142 -1.571,0.174 a 15.004,15.004 0 0 1 -0.531,0.009 7.156,7.156 0 0 1 -1.791,-0.212 5.067,5.067 0 0 1 -2.463,-1.43 q -1.559,-1.642 -1.559,-4.56 0,-2.94 1.448,-4.67 1.448,-1.731 3.888,-1.731 a 5.611,5.611 0 0 1 1.58,0.212 4.269,4.269 0 0 1 2.037,1.291 q 1.331,1.504 1.331,3.966 z m 16.43,5.392 v 1.409 a 1.811,1.811 0 0 1 -0.215,0.085 q -0.267,0.089 -0.667,0.153 -0.544,0.088 -0.986,0.094 a 4.723,4.723 0 0 1 -0.063,10e-4 4.81,4.81 0 0 1 -1.417,-0.191 q -1.558,-0.481 -1.966,-2.173 a 5.789,5.789 0 0 1 -0.144,-1.353 v -7.233 h -1.742 v -0.887 l 1.742,-0.766 0.776,-2.596 h 1.065 v 2.818 h 3.528 v 1.431 h -3.528 v 7.156 a 3.708,3.708 0 0 0 0.054,0.651 q 0.113,0.635 0.468,1.035 0.521,0.588 1.431,0.588 0.488,0 0.943,-0.072 0.434,-0.069 0.696,-0.143 a 2.766,2.766 0 0 0 0.025,-0.007 z m -29.942,-15.742 v 17.262 h -1.842 v -17.262 z m 5.181,10.018 h 6.356 q 0,-1.742 -0.776,-2.668 a 2.523,2.523 0 0 0 -1.52,-0.865 3.785,3.785 0 0 0 -0.699,-0.062 3.63,3.63 0 0 0 -1.049,0.144 2.805,2.805 0 0 0 -1.286,0.81 3.638,3.638 0 0 0 -0.724,1.221 q -0.23,0.629 -0.302,1.42 z" />
    <path
       vector-effect="non-scaling-stroke"
       style="stroke:#083c3c;stroke-width:0.025;stroke-opacity:1;stroke-miterlimit:4;stroke-dasharray:none"
       stroke-width="0.1"
       stroke="#FF0000"
       id="top_outsideCutPath"
       d="m 6,602.50341 v 10.3 H 0 v 27 h 6 v 27 H 0 v 27 h 6 v 10.3 h 39 v 6 h 27 v -6 h 27 v 6 h 27 v -6 h 27 v 6 h 27 v -6 h 27 v 6 h 27 v -6 h 27 v 6 h 27 v -6 h 27 v 6 h 27 v -6 h 27 12 v -10.3 h 6 v -27 h -6 v -27 h 6 v -27 h -6 v -10.3 h -39 v -6 h -27 v 6 h -27 v -6 h -27 v 6 h -27 v -6 h -27 v 6 h -27 v -6 h -27 v 6 h -27 v -6 H 99 v 6 H 72 v -6 H 45 v 6 H 18 Z" />
    <path
       vector-effect="non-scaling-stroke"
       style="fill:#777777;stroke:#083c3c;stroke-opacity:1;stroke-width:0.025;stroke-miterlimit:4;stroke-dasharray:none"
       fill="#777777"
       stroke="#777777"
       id="top_labelLayer"
       d="m 822.53324,67.100304 h -0.133 a 17.428,17.428 0 0 1 0.114,1.288 14.604,14.604 0 0 1 0.019,0.731 v 5.003 h -1.842 v -17.617 h 1.498 l 0.255,1.665 h 0.089 a 4.957,4.957 0 0 1 0.717,-0.815 3.833,3.833 0 0 1 0.936,-0.628 4.612,4.612 0 0 1 1.322,-0.386 5.969,5.969 0 0 1 0.841,-0.057 5.645,5.645 0 0 1 1.595,0.213 4.172,4.172 0 0 1 2.138,1.44 5.53,5.53 0 0 1 0.944,1.842 q 0.371,1.209 0.371,2.795 a 10.797,10.797 0 0 1 -0.143,1.817 q -0.166,0.968 -0.523,1.744 a 5.176,5.176 0 0 1 -0.671,1.093 4.36,4.36 0 0 1 -3.099,1.629 6.246,6.246 0 0 1 -0.612,0.029 5.586,5.586 0 0 1 -1.403,-0.171 4.86,4.86 0 0 1 -0.766,-0.267 4.079,4.079 0 0 1 -1.647,-1.348 z m -17.994,0.044 v 1.409 a 1.811,1.811 0 0 1 -0.215,0.086 q -0.267,0.088 -0.667,0.153 -0.544,0.088 -0.986,0.094 a 4.723,4.723 0 0 1 -0.062,0 4.81,4.81 0 0 1 -1.418,-0.191 q -1.558,-0.48 -1.966,-2.173 a 5.789,5.789 0 0 1 -0.144,-1.352 v -7.233 h -1.742 v -0.888 l 1.742,-0.765 0.776,-2.596 h 1.065 v 2.817 h 3.528 v 1.432 h -3.528 v 7.155 a 3.708,3.708 0 0 0 0.054,0.651 q 0.113,0.636 0.468,1.035 0.521,0.588 1.431,0.588 0.488,0 0.943,-0.072 0.434,-0.069 0.696,-0.143 a 2.766,2.766 0 0 0 0.025,-0.01 z m 12.755,-2.72 a 9.512,9.512 0 0 0 0.169,-1.85 10.808,10.808 0 0 0 -0.004,-0.293 q -0.027,-1.012 -0.246,-1.871 a 5.734,5.734 0 0 0 -1.253,-2.429 4.821,4.821 0 0 0 -2.238,-1.444 6.188,6.188 0 0 0 -1.817,-0.253 7.152,7.152 0 0 0 -1.285,0.11 4.871,4.871 0 0 0 -2.842,1.548 5.088,5.088 0 0 0 -0.625,0.867 q -0.481,0.839 -0.694,1.916 a 9.562,9.562 0 0 0 -0.167,1.849 9.213,9.213 0 0 0 0.115,1.492 6.813,6.813 0 0 0 0.572,1.858 q 0.688,1.431 1.953,2.197 a 5.128,5.128 0 0 0 1.177,0.523 5.914,5.914 0 0 0 1.718,0.242 q 2.641,0 4.138,-1.67 0.995,-1.108 1.329,-2.792 z m -8.702,0.706 a 3.863,3.863 0 0 0 0.54,0.994 3.018,3.018 0 0 0 1.965,1.157 4.574,4.574 0 0 0 0.775,0.063 4.277,4.277 0 0 0 1.128,-0.14 2.977,2.977 0 0 0 1.618,-1.075 3.953,3.953 0 0 0 0.615,-1.199 q 0.181,-0.554 0.26,-1.23 a 9.7,9.7 0 0 0 0.062,-1.126 9.189,9.189 0 0 0 -0.087,-1.31 q -0.199,-1.376 -0.85,-2.213 a 3.029,3.029 0 0 0 -1.884,-1.123 4.645,4.645 0 0 0 -0.884,-0.08 4.383,4.383 0 0 0 -1.092,0.128 2.933,2.933 0 0 0 -1.637,1.059 q -0.663,0.854 -0.849,2.312 a 9.731,9.731 0 0 0 -0.072,1.227 q 0,1.511 0.392,2.556 z m 13.941,-2.967 v 0.411 a 12.176,12.176 0 0 0 0.06,1.258 q 0.133,1.27 0.556,2.043 a 2.778,2.778 0 0 0 0.238,0.365 2.672,2.672 0 0 0 1.355,0.915 q 0.453,0.142 1.006,0.177 a 5.921,5.921 0 0 0 0.379,0.012 3.103,3.103 0 0 0 1.207,-0.226 q 0.695,-0.291 1.192,-0.954 a 3.67,3.67 0 0 0 0.07,-0.096 4.452,4.452 0 0 0 0.61,-1.301 q 0.283,-0.955 0.283,-2.215 a 9.293,9.293 0 0 0 -0.088,-1.318 q -0.095,-0.668 -0.297,-1.211 a 3.904,3.904 0 0 0 -0.508,-0.96 2.865,2.865 0 0 0 -2.096,-1.194 3.962,3.962 0 0 0 -0.417,-0.021 5.306,5.306 0 0 0 -0.991,0.086 q -0.553,0.105 -0.976,0.339 a 2.434,2.434 0 0 0 -0.729,0.607 3.155,3.155 0 0 0 -0.493,0.899 q -0.312,0.848 -0.355,2.102 a 11.721,11.721 0 0 0 -0.006,0.282 z" />
    <path
       vector-effect="non-scaling-stroke"
       style="stroke:#083c3c;stroke-width:0.025;stroke-opacity:1;stroke-miterlimit:4;stroke-dasharray:none"
       stroke-width="0.1"
       stroke="#FF0000"
       id="back_outsideCutPath"
       d="M 0,0 V 32 H 6 V 59 H 0 v 27 h 6 v 27 H 0 v 27 h 6 v 27 H 0 v 27 h 6 v 27 H 0 v 27 h 6 v 27 H 0 v 27 h 6 v 27 H 0 v 27 h 6 v 27 H 0 v 27 h 6 v 27 H 0 v 27 h 6 v 27 H 0 v 27 h 6 v 27 H 0 v 32 h 45 v -6 h 27 v 6 h 27 v -6 h 27 v 6 h 27 v -6 h 27 v 6 h 27 v -6 h 27 v 6 h 27 v -6 h 27 v 6 h 27 v -6 h 27 v 6 h 27 18 v -32 h -6 v -27 h 6 v -27 h -6 v -27 h 6 v -27 h -6 v -27 h 6 v -27 h -6 v -27 h 6 v -27 h -6 v -27 h 6 v -27 h -6 v -27 h 6 v -27 h -6 v -27 h 6 v -27 h -6 v -27 h 6 v -27 h -6 V 86 h 6 V 59 h -6 V 32 h 6 V 0 H 342 V 6 H 315 V 0 H 288 V 6 H 261 V 0 H 234 V 6 H 207 V 0 H 180 V 6 H 153 V 0 H 126 V 6 H 99 V 0 H 72 V 6 H 45 V 0 H 18 Z" />
    <path
       vector-effect="non-scaling-stroke"
       style="fill:#777777;stroke:#083c3c;stroke-opacity:1;stroke-width:0.025;stroke-miterlimit:4;stroke-dasharray:none"
       fill="#777777"
       stroke="#777777"
       id="back_labelLayer"
       d="m 246.486,296.323 h 0.302 q 1.625,-2.306 4.951,-6.047 l 13.379,-14.173 h 7.445 l -16.78,17.65 17.951,23.772 h -7.596 l -14.626,-19.577 -4.724,4.081 v 15.496 h -6.198 v -58.806 h 6.198 v 31.179 a 41.807,41.807 0 0 1 -0.019,1.181 q -0.056,1.984 -0.283,5.244 z m -126.947,15.873 h -0.453 l -1.323,5.329 h -4.497 v -58.806 h 6.273 v 14.285 a 130.8,130.8 0 0 1 -0.071,4.42 q -0.075,2.229 -0.231,4.197 h 0.302 a 14.264,14.264 0 0 1 10.412,-6.046 21.427,21.427 0 0 1 2.589,-0.152 19.174,19.174 0 0 1 5.396,0.72 14.354,14.354 0 0 1 7.283,4.855 18.487,18.487 0 0 1 3.242,6.243 q 1.275,4.114 1.275,9.535 a 36.784,36.784 0 0 1 -0.488,6.189 q -0.564,3.299 -1.78,5.944 a 17.634,17.634 0 0 1 -2.286,3.721 14.852,14.852 0 0 1 -10.556,5.551 21.278,21.278 0 0 1 -2.086,0.099 19.029,19.029 0 0 1 -4.782,-0.583 16.557,16.557 0 0 1 -2.607,-0.909 13.895,13.895 0 0 1 -5.612,-4.592 z m 71.278,5.329 h -4.649 l -1.247,-5.896 h -0.302 a 26.007,26.007 0 0 1 -2.105,2.355 q -1.132,1.113 -2.262,1.889 a 11.559,11.559 0 0 1 -1.812,1.028 14.467,14.467 0 0 1 -2.989,0.943 q -1.45,0.3 -3.129,0.394 a 28.233,28.233 0 0 1 -1.573,0.042 q -6.161,0 -9.656,-3.174 a 10.312,10.312 0 0 1 -3.111,-5.438 15.786,15.786 0 0 1 -0.385,-3.595 q 0,-12.547 20.068,-13.152 l 7.029,-0.226 v -2.57 a 18.019,18.019 0 0 0 -0.175,-2.606 q -0.195,-1.333 -0.608,-2.401 a 7.001,7.001 0 0 0 -1.314,-2.193 6.368,6.368 0 0 0 -2.609,-1.702 q -1.044,-0.379 -2.338,-0.527 a 15.501,15.501 0 0 0 -1.762,-0.095 20.426,20.426 0 0 0 -4.7,0.586 q -3.287,0.778 -7.015,2.588 l -1.928,-4.799 a 28.926,28.926 0 0 1 5.583,-2.295 32.925,32.925 0 0 1 1.125,-0.313 q 3.647,-0.945 7.313,-0.945 4.633,0 7.766,1.286 a 10.677,10.677 0 0 1 3.213,2.002 9.934,9.934 0 0 1 2.564,3.955 q 1.008,2.735 1.008,6.589 z m 40.552,-40.023 -1.928,5.329 a 27.909,27.909 0 0 0 -3.027,-1.007 33.333,33.333 0 0 0 -1.508,-0.373 25.915,25.915 0 0 0 -1.972,-0.365 q -0.961,-0.137 -1.816,-0.171 a 13.907,13.907 0 0 0 -0.558,-0.012 13.916,13.916 0 0 0 -5.652,1.062 q -6.971,3.073 -6.971,15.038 a 30.383,30.383 0 0 0 0.301,4.424 q 0.661,4.486 2.779,7.292 a 9.964,9.964 0 0 0 6.456,3.857 15.178,15.178 0 0 0 2.671,0.224 26.262,26.262 0 0 0 7.244,-1.053 32.425,32.425 0 0 0 3.376,-1.176 v 5.555 a 17.845,17.845 0 0 1 -4.366,1.545 q -2.017,0.448 -4.363,0.566 a 34.404,34.404 0 0 1 -1.74,0.043 23.447,23.447 0 0 1 -5.704,-0.654 15.899,15.899 0 0 1 -8.222,-4.882 q -4.932,-5.537 -4.932,-15.665 a 34.615,34.615 0 0 1 0.535,-6.295 q 1.103,-5.953 4.472,-9.767 a 16.244,16.244 0 0 1 8.895,-5.116 24.626,24.626 0 0 1 5.372,-0.553 28.311,28.311 0 0 1 5.971,0.642 q 2.986,0.643 4.687,1.512 z m -99.736,3.174 a 17.629,17.629 0 0 0 -3.414,0.308 q -3.83,0.758 -5.845,3.377 a 10.739,10.739 0 0 0 -1.555,2.962 q -1.049,2.939 -1.238,7.408 a 48.335,48.335 0 0 0 -0.042,2.045 41.481,41.481 0 0 0 0.205,4.287 q 0.452,4.326 1.895,6.958 a 9.462,9.462 0 0 0 0.81,1.246 q 2.609,3.371 8.043,3.72 a 20.172,20.172 0 0 0 1.292,0.04 12.506,12.506 0 0 0 3.552,-0.475 9.022,9.022 0 0 0 5.065,-3.739 14.402,14.402 0 0 0 1.782,-3.854 q 0.559,-1.83 0.821,-4.047 a 35.947,35.947 0 0 0 0.231,-4.211 37.065,37.065 0 0 0 -0.224,-4.224 q -0.573,-4.98 -2.61,-7.832 a 9.149,9.149 0 0 0 -5.825,-3.687 14.51,14.51 0 0 0 -2.943,-0.282 z m 52.91,20.22 v -3.742 l -6.274,0.265 a 46.065,46.065 0 0 0 -3.68,0.267 q -4.681,0.544 -7.109,2.057 a 6.694,6.694 0 0 0 -3.191,4.856 9.909,9.909 0 0 0 -0.116,1.55 8.966,8.966 0 0 0 0.221,2.057 q 0.455,1.927 1.838,3.121 a 6.829,6.829 0 0 0 2.559,1.358 q 1.409,0.418 3.205,0.418 a 17.273,17.273 0 0 0 3.73,-0.38 q 3.277,-0.724 5.472,-2.833 a 10.507,10.507 0 0 0 2.932,-5.246 q 0.407,-1.689 0.413,-3.685 a 19.945,19.945 0 0 0 0,-0.063 z" />
    <path
       vector-effect="non-scaling-stroke"
       style="stroke:#083c3c;stroke-width:0.025;stroke-opacity:1;stroke-miterlimit:4;stroke-dasharray:none"
       stroke-width="0.1"
       stroke="#FF0000"
       id="right_outsideCutPath"
       d="m 396,0 v 32 h -6 v 27 h 6 v 27 h -6 v 27 h 6 v 27 h -6 v 27 h 6 v 27 h -6 v 27 h 6 v 27 h -6 v 27 h 6 v 27 h -6 v 27 h 6 v 27 h -6 v 27 h 6 v 27 h -6 v 27 h 6 v 27 h -6 v 27 h 6 v 27 h -6 v 27 h 6 v 32 h 10.3 v -6 h 27 v 6 h 27 v -6 h 27 v 6 h 10.3 v -32 h 6 v -27 h -6 v -27 h 6 v -27 h -6 v -27 h 6 v -27 h -6 v -27 h 6 v -27 h -6 v -27 h 6 v -27 h -6 v -27 h 6 v -27 h -6 v -27 h 6 v -27 h -6 v -27 h 6 v -27 h -6 v -27 h 6 V 86 h -6 V 59 h 6 V 32 h -6 V 0 h -10.3 v 6 h -27 V 0 h -27 v 6 h -27 V 0 Z" />
    <path
       vector-effect="non-scaling-stroke"
       style="fill:#777777;stroke:#083c3c;stroke-opacity:1;stroke-width:0.025;stroke-miterlimit:4;stroke-dasharray:none"
       fill="#777777"
       stroke="#777777"
       id="right_labelLayer"
       d="m 460.928,294.402 h -1.842 v -7.866 a 5.206,5.206 0 0 0 -0.059,-0.816 q -0.069,-0.43 -0.216,-0.772 a 2.191,2.191 0 0 0 -0.401,-0.63 2.076,2.076 0 0 0 -0.852,-0.544 q -0.334,-0.118 -0.746,-0.162 a 4.882,4.882 0 0 0 -0.521,-0.027 5.573,5.573 0 0 0 -1.042,0.091 q -0.578,0.11 -1.022,0.354 a 2.578,2.578 0 0 0 -0.737,0.598 3.064,3.064 0 0 0 -0.52,0.922 q -0.314,0.844 -0.356,2.098 a 11.885,11.885 0 0 0 -0.006,0.397 v 6.357 h -1.842 V 277.14 h 1.842 v 5.225 a 16.566,16.566 0 0 1 -0.012,0.636 q -0.02,0.53 -0.077,0.928 h 0.111 a 3.679,3.679 0 0 1 1.289,-1.24 4.495,4.495 0 0 1 0.258,-0.141 4.728,4.728 0 0 1 1.552,-0.46 5.977,5.977 0 0 1 0.739,-0.045 q 1.467,0 2.451,0.459 a 3.319,3.319 0 0 1 0.894,0.601 3.206,3.206 0 0 1 0.791,1.242 q 0.324,0.881 0.324,2.125 z m -16.863,-12.159 h 4.205 v 1.165 l -2.252,0.266 a 2.993,2.993 0 0 1 0.259,0.386 q 0.114,0.199 0.217,0.437 a 5.677,5.677 0 0 1 0.079,0.192 3.543,3.543 0 0 1 0.209,0.847 4.55,4.55 0 0 1 0.035,0.568 4.222,4.222 0 0 1 -0.194,1.309 3.415,3.415 0 0 1 -1.027,1.542 q -1.099,0.959 -2.937,1.054 a 7.998,7.998 0 0 1 -0.413,0.011 5.919,5.919 0 0 1 -0.685,-0.038 4.998,4.998 0 0 1 -0.336,-0.051 q -0.671,0.355 -0.959,0.814 a 1.386,1.386 0 0 0 -0.217,0.75 0.954,0.954 0 0 0 0.049,0.313 q 0.093,0.268 0.362,0.425 0.41,0.238 1.409,0.238 h 2.152 a 7.538,7.538 0 0 1 1.145,0.082 q 1.161,0.179 1.889,0.751 a 2.694,2.694 0 0 1 1.001,1.716 4.046,4.046 0 0 1 0.059,0.702 q 0,2.019 -1.62,3.078 a 5.523,5.523 0 0 1 -1.424,0.646 q -0.702,0.213 -1.558,0.317 a 14.596,14.596 0 0 1 -1.744,0.097 10.318,10.318 0 0 1 -1.384,-0.087 q -1.405,-0.19 -2.294,-0.801 a 2.935,2.935 0 0 1 -0.946,-1.026 q -0.346,-0.642 -0.346,-1.481 0,-1.109 0.71,-1.919 a 3.216,3.216 0 0 1 1.104,-0.805 4.558,4.558 0 0 1 0.893,-0.293 1.911,1.911 0 0 1 -0.742,-0.6 2.269,2.269 0 0 1 -0.04,-0.055 1.707,1.707 0 0 1 -0.314,-0.923 2.115,2.115 0 0 1 -0.002,-0.109 q 0,-0.665 0.355,-1.164 0.355,-0.5 1.12,-0.966 -0.943,-0.388 -1.536,-1.32 a 3.807,3.807 0 0 1 -0.585,-1.834 4.646,4.646 0 0 1 -0.009,-0.296 5.321,5.321 0 0 1 0.14,-1.258 3.501,3.501 0 0 1 1.058,-1.82 3.911,3.911 0 0 1 1.501,-0.828 q 0.597,-0.182 1.314,-0.234 a 8.133,8.133 0 0 1 0.58,-0.02 7.059,7.059 0 0 1 0.934,0.059 5.376,5.376 0 0 1 0.785,0.163 z m 26.237,10.639 v 1.409 a 1.811,1.811 0 0 1 -0.215,0.085 q -0.266,0.089 -0.667,0.153 -0.544,0.088 -0.986,0.094 a 4.723,4.723 0 0 1 -0.062,0.001 4.81,4.81 0 0 1 -1.418,-0.191 q -1.558,-0.481 -1.965,-2.173 a 5.789,5.789 0 0 1 -0.145,-1.353 v -7.233 h -1.742 v -0.887 l 1.742,-0.766 0.777,-2.596 h 1.065 v 2.818 h 3.527 v 1.431 h -3.527 v 7.156 a 3.708,3.708 0 0 0 0.053,0.651 q 0.114,0.635 0.468,1.035 0.521,0.588 1.431,0.588 0.488,0 0.943,-0.072 0.434,-0.069 0.696,-0.143 a 2.766,2.766 0 0 0 0.025,-0.007 z m -40.004,-10.728 -0.255,1.709 a 8.116,8.116 0 0 0 -0.584,-0.108 q -0.291,-0.042 -0.55,-0.054 a 4.319,4.319 0 0 0 -0.197,-0.005 3.191,3.191 0 0 0 -2.358,1.019 4.365,4.365 0 0 0 -0.166,0.179 4.205,4.205 0 0 0 -1.015,2.362 5.59,5.59 0 0 0 -0.034,0.623 v 6.523 h -1.841 v -12.159 h 1.52 l 0.211,2.252 h 0.088 q 0.677,-1.187 1.631,-1.83 a 3.671,3.671 0 0 1 2.097,-0.644 8.454,8.454 0 0 1 0.757,0.032 6.171,6.171 0 0 1 0.696,0.101 z m 4.116,0.089 v 12.159 h -1.842 v -12.159 z m 9.019,11.881 h -2.208 q -1.253,0 -1.952,0.6 a 1.941,1.941 0 0 0 -0.637,1.1 2.947,2.947 0 0 0 -0.062,0.619 1.85,1.85 0 0 0 0.122,0.686 q 0.196,0.497 0.71,0.812 a 2.949,2.949 0 0 0 0.725,0.311 q 0.684,0.197 1.645,0.199 a 9.245,9.245 0 0 0 0.015,0 q 2.319,0 3.434,-0.693 a 2.686,2.686 0 0 0 0.623,-0.522 2.013,2.013 0 0 0 0.492,-1.359 q 0,-0.987 -0.611,-1.37 a 1.747,1.747 0 0 0 -0.414,-0.18 q -0.441,-0.136 -1.139,-0.181 a 11.718,11.718 0 0 0 -0.743,-0.022 z m -3.861,-7.987 q 0,1.276 0.722,1.93 0.649,0.59 1.758,0.648 a 4.742,4.742 0 0 0 0.249,0.007 q 2.129,0 2.577,-1.632 a 3.73,3.73 0 0 0 0.119,-0.986 q 0,-2.175 -1.718,-2.624 a 4.005,4.005 0 0 0 -1.011,-0.116 3.864,3.864 0 0 0 -0.787,0.075 q -0.74,0.154 -1.21,0.623 a 2.21,2.21 0 0 0 -0.535,0.901 q -0.112,0.349 -0.148,0.773 a 4.845,4.845 0 0 0 -0.016,0.401 z m -7.155,-7.189 q 0,-0.632 0.311,-0.926 a 1.065,1.065 0 0 1 0.683,-0.291 1.406,1.406 0 0 1 0.093,-0.003 q 0.444,0 0.766,0.299 a 0.93,0.93 0 0 1 0.245,0.391 q 0.05,0.149 0.067,0.331 a 2.107,2.107 0 0 1 0.009,0.199 q 0,0.419 -0.146,0.694 a 0.899,0.899 0 0 1 -0.175,0.233 1.074,1.074 0 0 1 -0.766,0.305 1.17,1.17 0 0 1 -0.403,-0.067 1.033,1.033 0 0 1 -0.373,-0.238 0.951,0.951 0 0 1 -0.232,-0.381 q -0.052,-0.152 -0.07,-0.338 a 2.174,2.174 0 0 1 -0.009,-0.208 z" />
    <path
       vector-effect="non-scaling-stroke"
       style="stroke:#083c3c;stroke-width:0.025;stroke-opacity:1;stroke-miterlimit:4;stroke-dasharray:none"
       stroke-width="0.1"
       stroke="#FF0000"
       id="bottom_outsideCutPath"
       d="M 628.77241,6.3758916 V 16.675892 h -6 v 27 h 6 v 27 h -6 v 27.000005 h 6 v 10.299993 h 39 v 6 h 27 v -6 h 27 v 6 h 27 v -6 h 27 v 6 h 27 v -6 h 27 v 6 h 27 v -6 h 27 v 6 h 27 v -6 h 27 v 6 h 27 v -6 h 27 11.99999 V 97.675897 h 6 V 70.675892 h -6 v -27 h 6 v -27 h -6 V 6.3758916 H 964.77241 V 0.37589163 h -27 V 6.3758916 h -27 V 0.37589163 h -27 V 6.3758916 h -27 V 0.37589163 h -27 V 6.3758916 h -27 V 0.37589163 h -27 V 6.3758916 h -27 V 0.37589163 h -27 V 6.3758916 h -27 V 0.37589163 h -27 V 6.3758916 h -27 z" />
    <path
       vector-effect="non-scaling-stroke"
       style="fill:#777777;stroke:#083c3c;stroke-opacity:1;stroke-width:0.025;stroke-miterlimit:4;stroke-dasharray:none"
       fill="#777777"
       stroke="#777777"
       id="bottom_labelLayer"
       d="m 214.4023,670.98685 h -1.842 v -7.91 a 5.433,5.433 0 0 0 -0.055,-0.799 q -0.06,-0.408 -0.189,-0.737 a 2.225,2.225 0 0 0 -0.377,-0.644 1.938,1.938 0 0 0 -0.901,-0.583 q -0.446,-0.144 -1.029,-0.144 a 4.739,4.739 0 0 0 -0.965,0.092 q -1.005,0.209 -1.576,0.896 a 3.043,3.043 0 0 0 -0.516,0.934 q -0.302,0.848 -0.305,2.086 a 10.38,10.38 0 0 0 0,0.019 v 6.79 h -1.841 v -7.91 a 5.433,5.433 0 0 0 -0.055,-0.799 q -0.061,-0.408 -0.189,-0.737 a 2.225,2.225 0 0 0 -0.378,-0.644 1.932,1.932 0 0 0 -0.888,-0.577 q -0.32,-0.105 -0.71,-0.137 a 4.312,4.312 0 0 0 -0.343,-0.013 q -1.208,0 -1.964,0.505 a 2.414,2.414 0 0 0 -0.571,0.533 3.088,3.088 0 0 0 -0.458,0.869 q -0.297,0.84 -0.339,2.1 a 12.822,12.822 0 0 0 -0.007,0.431 v 6.379 h -1.842 v -12.159 h 1.498 l 0.299,1.664 h 0.089 q 0.522,-0.887 1.47,-1.387 a 4.372,4.372 0 0 1 1.727,-0.484 5.281,5.281 0 0 1 0.398,-0.015 6.029,6.029 0 0 1 1.357,0.141 q 0.834,0.194 1.417,0.651 a 3.144,3.144 0 0 1 0.953,1.272 h 0.089 q 0.543,-0.955 1.575,-1.509 a 4.661,4.661 0 0 1 1.71,-0.52 5.812,5.812 0 0 1 0.642,-0.035 q 1.391,0 2.311,0.481 a 3.035,3.035 0 0 1 0.779,0.579 q 1.026,1.059 1.026,3.389 z m -72.908,-1.565 h -0.133 l -0.389,1.565 h -1.32 v -17.262 h 1.842 v 4.193 a 38.395,38.395 0 0 1 -0.021,1.297 q -0.022,0.655 -0.068,1.233 h 0.089 q 1.287,-1.82 3.816,-1.82 a 5.628,5.628 0 0 1 1.584,0.212 4.213,4.213 0 0 1 2.138,1.425 5.427,5.427 0 0 1 0.951,1.832 q 0.234,0.755 0.322,1.66 a 11.82,11.82 0 0 1 0.053,1.139 10.797,10.797 0 0 1 -0.144,1.817 q -0.165,0.968 -0.522,1.745 a 5.176,5.176 0 0 1 -0.671,1.092 4.36,4.36 0 0 1 -3.099,1.629 6.246,6.246 0 0 1 -0.612,0.03 5.586,5.586 0 0 1 -1.404,-0.172 4.86,4.86 0 0 1 -0.765,-0.267 4.079,4.079 0 0 1 -1.647,-1.348 z m 31.395,0.045 v 1.409 a 1.811,1.811 0 0 1 -0.215,0.085 q -0.267,0.088 -0.667,0.153 -0.544,0.088 -0.986,0.094 a 4.723,4.723 0 0 1 -0.062,10e-4 4.81,4.81 0 0 1 -1.418,-0.191 q -1.558,-0.481 -1.966,-2.174 a 5.789,5.789 0 0 1 -0.144,-1.352 v -7.233 h -1.742 v -0.887 l 1.742,-0.766 0.776,-2.596 h 1.065 v 2.818 h 3.528 v 1.431 h -3.528 v 7.156 a 3.708,3.708 0 0 0 0.054,0.651 q 0.113,0.635 0.468,1.035 0.521,0.588 1.431,0.588 0.488,0 0.943,-0.072 0.434,-0.069 0.696,-0.143 a 2.766,2.766 0 0 0 0.025,-0.007 z m 8.021,0 v 1.409 a 1.811,1.811 0 0 1 -0.215,0.085 q -0.267,0.088 -0.667,0.153 -0.544,0.088 -0.986,0.094 a 4.723,4.723 0 0 1 -0.063,10e-4 4.81,4.81 0 0 1 -1.417,-0.191 q -1.558,-0.481 -1.966,-2.174 a 5.789,5.789 0 0 1 -0.144,-1.352 v -7.233 h -1.742 v -0.887 l 1.742,-0.766 0.776,-2.596 h 1.065 v 2.818 h 3.528 v 1.431 h -3.528 v 7.156 a 3.708,3.708 0 0 0 0.054,0.651 q 0.113,0.635 0.468,1.035 0.521,0.588 1.431,0.588 0.488,0 0.943,-0.072 0.434,-0.069 0.696,-0.143 a 2.766,2.766 0 0 0 0.025,-0.007 z m -17.01,-2.72 a 9.512,9.512 0 0 0 0.169,-1.851 10.808,10.808 0 0 0 -0.003,-0.292 q -0.028,-1.012 -0.247,-1.872 a 5.734,5.734 0 0 0 -1.253,-2.429 4.821,4.821 0 0 0 -2.238,-1.443 6.188,6.188 0 0 0 -1.817,-0.254 7.152,7.152 0 0 0 -1.284,0.11 4.871,4.871 0 0 0 -2.842,1.549 5.088,5.088 0 0 0 -0.625,0.866 q -0.482,0.839 -0.694,1.916 a 9.562,9.562 0 0 0 -0.168,1.849 9.213,9.213 0 0 0 0.116,1.492 6.813,6.813 0 0 0 0.572,1.859 q 0.688,1.431 1.952,2.196 a 5.128,5.128 0 0 0 1.177,0.523 5.914,5.914 0 0 0 1.719,0.243 q 2.64,0 4.138,-1.67 0.994,-1.109 1.328,-2.792 z m 29.765,0 a 9.512,9.512 0 0 0 0.169,-1.851 10.808,10.808 0 0 0 -0.004,-0.292 q -0.027,-1.012 -0.247,-1.872 a 5.734,5.734 0 0 0 -1.252,-2.429 4.821,4.821 0 0 0 -2.238,-1.443 6.188,6.188 0 0 0 -1.817,-0.254 7.152,7.152 0 0 0 -1.285,0.11 4.871,4.871 0 0 0 -2.842,1.549 5.088,5.088 0 0 0 -0.625,0.866 q -0.481,0.839 -0.694,1.916 a 9.562,9.562 0 0 0 -0.167,1.849 9.213,9.213 0 0 0 0.115,1.492 6.813,6.813 0 0 0 0.572,1.859 q 0.688,1.431 1.953,2.196 a 5.128,5.128 0 0 0 1.177,0.523 5.914,5.914 0 0 0 1.718,0.243 q 2.641,0 4.138,-1.67 0.995,-1.109 1.329,-2.792 z m -38.466,0.706 a 3.863,3.863 0 0 0 0.539,0.993 3.018,3.018 0 0 0 1.966,1.158 4.574,4.574 0 0 0 0.774,0.063 4.277,4.277 0 0 0 1.129,-0.141 2.977,2.977 0 0 0 1.617,-1.074 3.953,3.953 0 0 0 0.615,-1.199 q 0.182,-0.554 0.261,-1.231 a 9.7,9.7 0 0 0 0.061,-1.126 9.189,9.189 0 0 0 -0.087,-1.309 q -0.198,-1.376 -0.85,-2.213 a 3.029,3.029 0 0 0 -1.884,-1.124 4.645,4.645 0 0 0 -0.884,-0.08 4.383,4.383 0 0 0 -1.091,0.128 2.933,2.933 0 0 0 -1.638,1.059 q -0.663,0.855 -0.849,2.313 a 9.731,9.731 0 0 0 -0.072,1.226 q 0,1.512 0.393,2.557 z m 29.764,0 a 3.863,3.863 0 0 0 0.54,0.993 3.018,3.018 0 0 0 1.965,1.158 4.574,4.574 0 0 0 0.775,0.063 4.277,4.277 0 0 0 1.128,-0.141 2.977,2.977 0 0 0 1.617,-1.074 3.953,3.953 0 0 0 0.616,-1.199 q 0.181,-0.554 0.26,-1.231 a 9.7,9.7 0 0 0 0.062,-1.126 9.189,9.189 0 0 0 -0.087,-1.309 q -0.199,-1.376 -0.851,-2.213 a 3.029,3.029 0 0 0 -1.883,-1.124 4.645,4.645 0 0 0 -0.884,-0.08 4.383,4.383 0 0 0 -1.092,0.128 2.933,2.933 0 0 0 -1.638,1.059 q -0.662,0.855 -0.848,2.313 a 9.731,9.731 0 0 0 -0.072,1.226 q 0,1.512 0.392,2.557 z m -39.919,-7.283 a 5.175,5.175 0 0 0 -1.003,0.091 q -1.124,0.222 -1.715,0.991 -0.731,0.95 -0.82,3.044 a 14.188,14.188 0 0 0 -0.012,0.6 12.176,12.176 0 0 0 0.06,1.259 q 0.132,1.27 0.556,2.042 a 2.778,2.778 0 0 0 0.238,0.366 2.672,2.672 0 0 0 1.355,0.914 q 0.453,0.142 1.006,0.178 a 5.921,5.921 0 0 0 0.379,0.012 3.671,3.671 0 0 0 1.043,-0.14 2.648,2.648 0 0 0 1.486,-1.097 4.227,4.227 0 0 0 0.523,-1.132 q 0.165,-0.537 0.242,-1.188 a 10.552,10.552 0 0 0 0.067,-1.236 q 0,-2.25 -0.747,-3.414 a 3.055,3.055 0 0 0 -0.085,-0.125 2.686,2.686 0 0 0 -1.709,-1.082 4.259,4.259 0 0 0 -0.864,-0.083 z" />
    <rect
       transform="rotate(90)"
       style="fill:none;stroke:#000000;stroke-width:0.025;stroke-miterlimit:4;stroke-dasharray:none"
       id="rect892"
       width="440.00003"
       height="253.77942"
       x="196.19247"
       y="-944.00616" />
  </g>
</svg>
